<svg width="1440" height="1208" viewBox="0 0 1440 1208" fill="none" xmlns="http://www.w3.org/2000/svg">
<g filter="url(#filter0_f_18_267)">
<mask id="path-1-outside-1_18_267" maskUnits="userSpaceOnUse" x="-467" y="-390" width="1948" height="1557" fill="black">
<rect fill="white" x="-467" y="-390" width="1948" height="1557"/>
<path d="M684.144 644.507H468.195C461.617 644.507 455.381 647.432 451.182 652.486L299.969 834.51C288.023 848.89 298.268 870.657 316.982 870.657H491.286C532.846 870.657 572.002 851.208 597.067 818.116L701.774 679.877C712.782 665.343 702.397 644.507 684.144 644.507Z"/>
<path d="M1436.86 93.763H1220.91C1214.33 93.763 1208.09 96.6879 1203.9 101.743L1052.68 283.766C1040.74 298.146 1050.98 319.913 1069.7 319.913H1244C1285.56 319.913 1324.72 300.464 1349.78 267.372L1454.49 129.133C1465.5 114.599 1455.11 93.763 1436.86 93.763Z"/>
<path d="M319.751 418.926H103.802C97.2242 418.926 90.9879 421.85 86.7888 426.905L-64.4237 608.928C-76.3697 623.308 -66.1246 645.075 -47.4102 645.075H126.893C168.453 645.075 207.609 625.627 232.674 592.535L337.381 454.296C348.39 439.762 338.004 418.926 319.751 418.926Z"/>
<path d="M1072.46 -131.818H856.516C849.938 -131.818 843.701 -128.894 839.502 -123.839L688.29 58.1843C676.344 72.5644 686.589 94.3315 705.303 94.3315H879.607C921.167 94.3315 960.323 74.8828 985.388 41.7908L1090.09 -96.4484C1101.1 -110.982 1090.72 -131.818 1072.46 -131.818Z"/>
<path d="M319.751 919.85H103.802C97.2242 919.85 90.9879 922.775 86.7888 927.83L-64.4237 1109.85C-76.3697 1124.23 -66.1246 1146 -47.4102 1146H126.893C168.453 1146 207.609 1126.55 232.674 1093.46L337.381 955.22C348.39 940.686 338.004 919.85 319.751 919.85Z"/>
<path d="M1072.46 369.106H856.516C849.938 369.106 843.701 372.031 839.502 377.086L688.29 559.109C676.344 573.489 686.589 595.256 705.303 595.256H879.607C921.167 595.256 960.323 575.807 985.388 542.715L1090.09 404.476C1101.1 389.942 1090.72 369.106 1072.46 369.106Z"/>
<path d="M-44.6415 694.269H-260.59C-267.168 694.269 -273.405 697.193 -277.604 702.248L-428.816 884.271C-440.762 898.651 -430.517 920.419 -411.803 920.419H-237.499C-195.939 920.419 -156.783 900.97 -131.718 867.878L-27.0114 729.639C-16.0028 715.105 -26.3885 694.269 -44.6415 694.269Z"/>
<path d="M708.072 143.525H492.123C485.545 143.525 479.309 146.45 475.11 151.504L323.897 333.527C311.951 347.907 322.196 369.675 340.911 369.675H515.214C556.774 369.675 595.93 350.226 620.995 317.134L725.702 178.895C736.711 164.361 726.325 143.525 708.072 143.525Z"/>
<path d="M673.091 407.325H509.065C469.597 407.325 432.179 424.875 406.985 455.203L288.916 597.328C276.97 611.708 287.215 633.475 305.93 633.475H535.221C542.148 633.475 548.674 630.234 552.851 624.719L690.721 442.695C701.73 428.161 691.344 407.325 673.091 407.325Z"/>
<path d="M1425.8 -143.419H1261.78C1222.31 -143.419 1184.89 -125.869 1159.7 -95.5413L1041.63 46.5841C1029.68 60.9643 1039.93 82.7314 1058.64 82.7314H1287.93C1294.86 82.7314 1301.39 79.4899 1305.56 73.9746L1443.43 -108.049C1454.44 -122.583 1444.06 -143.419 1425.8 -143.419Z"/>
<path d="M308.699 181.744H144.673C105.204 181.744 67.7863 199.293 42.5919 229.621L-75.4763 371.747C-87.4223 386.127 -77.1772 407.894 -58.4629 407.894H170.828C177.755 407.894 184.281 404.652 188.458 399.137L326.329 217.114C337.337 202.58 326.952 181.744 308.699 181.744Z"/>
<path d="M1061.41 -369H897.386C857.917 -369 820.5 -351.451 795.305 -321.123L677.237 -178.997C665.291 -164.617 675.536 -142.85 694.251 -142.85H923.542C930.468 -142.85 936.995 -146.092 941.172 -151.607L1079.04 -333.63C1090.05 -348.164 1079.67 -369 1061.41 -369Z"/>
<path d="M308.699 682.668H144.673C105.204 682.668 67.7863 700.218 42.5919 730.546L-75.4763 872.671C-87.4223 887.051 -77.1772 908.818 -58.4629 908.818H170.828C177.755 908.818 184.281 905.577 188.458 900.062L326.329 718.039C337.337 703.505 326.952 682.668 308.699 682.668Z"/>
<path d="M1061.41 131.924H897.386C857.917 131.924 820.5 149.474 795.305 179.802L677.237 321.927C665.291 336.307 675.536 358.074 694.251 358.074H923.542C930.468 358.074 936.995 354.833 941.172 349.318L1079.04 167.295C1090.05 152.761 1079.67 131.924 1061.41 131.924Z"/>
<path d="M-55.6941 457.087H-219.72C-259.189 457.087 -296.606 474.636 -321.801 504.964L-439.869 647.09C-451.815 661.47 -441.57 683.237 -422.855 683.237H-193.564C-186.638 683.237 -180.112 679.996 -175.934 674.48L-38.064 492.457C-27.0555 477.923 -37.4411 457.087 -55.6941 457.087Z"/>
<path d="M697.019 -93.6569H532.994C493.525 -93.6569 456.107 -76.1075 430.913 -45.7797L312.845 96.3458C300.898 110.726 311.144 132.493 329.858 132.493H559.149C566.076 132.493 572.602 129.252 576.779 123.736L714.65 -58.2869C725.658 -72.8209 715.272 -93.6569 697.019 -93.6569Z"/>
</mask>
<path d="M684.144 644.507H468.195C461.617 644.507 455.381 647.432 451.182 652.486L299.969 834.51C288.023 848.89 298.268 870.657 316.982 870.657H491.286C532.846 870.657 572.002 851.208 597.067 818.116L701.774 679.877C712.782 665.343 702.397 644.507 684.144 644.507Z" fill="url(#paint0_linear_18_267)"/>
<path d="M1436.86 93.763H1220.91C1214.33 93.763 1208.09 96.6879 1203.9 101.743L1052.68 283.766C1040.74 298.146 1050.98 319.913 1069.7 319.913H1244C1285.56 319.913 1324.72 300.464 1349.78 267.372L1454.49 129.133C1465.5 114.599 1455.11 93.763 1436.86 93.763Z" fill="url(#paint1_linear_18_267)"/>
<path d="M319.751 418.926H103.802C97.2242 418.926 90.9879 421.85 86.7888 426.905L-64.4237 608.928C-76.3697 623.308 -66.1246 645.075 -47.4102 645.075H126.893C168.453 645.075 207.609 625.627 232.674 592.535L337.381 454.296C348.39 439.762 338.004 418.926 319.751 418.926Z" fill="url(#paint2_linear_18_267)"/>
<path d="M1072.46 -131.818H856.516C849.938 -131.818 843.701 -128.894 839.502 -123.839L688.29 58.1843C676.344 72.5644 686.589 94.3315 705.303 94.3315H879.607C921.167 94.3315 960.323 74.8828 985.388 41.7908L1090.09 -96.4484C1101.1 -110.982 1090.72 -131.818 1072.46 -131.818Z" fill="url(#paint3_linear_18_267)"/>
<path d="M319.751 919.85H103.802C97.2242 919.85 90.9879 922.775 86.7888 927.83L-64.4237 1109.85C-76.3697 1124.23 -66.1246 1146 -47.4102 1146H126.893C168.453 1146 207.609 1126.55 232.674 1093.46L337.381 955.22C348.39 940.686 338.004 919.85 319.751 919.85Z" fill="url(#paint4_linear_18_267)"/>
<path d="M1072.46 369.106H856.516C849.938 369.106 843.701 372.031 839.502 377.086L688.29 559.109C676.344 573.489 686.589 595.256 705.303 595.256H879.607C921.167 595.256 960.323 575.807 985.388 542.715L1090.09 404.476C1101.1 389.942 1090.72 369.106 1072.46 369.106Z" fill="url(#paint5_linear_18_267)"/>
<path d="M-44.6415 694.269H-260.59C-267.168 694.269 -273.405 697.193 -277.604 702.248L-428.816 884.271C-440.762 898.651 -430.517 920.419 -411.803 920.419H-237.499C-195.939 920.419 -156.783 900.97 -131.718 867.878L-27.0114 729.639C-16.0028 715.105 -26.3885 694.269 -44.6415 694.269Z" fill="url(#paint6_linear_18_267)"/>
<path d="M708.072 143.525H492.123C485.545 143.525 479.309 146.45 475.11 151.504L323.897 333.527C311.951 347.907 322.196 369.675 340.911 369.675H515.214C556.774 369.675 595.93 350.226 620.995 317.134L725.702 178.895C736.711 164.361 726.325 143.525 708.072 143.525Z" fill="url(#paint7_linear_18_267)"/>
<path d="M673.091 407.325H509.065C469.597 407.325 432.179 424.875 406.985 455.203L288.916 597.328C276.97 611.708 287.215 633.475 305.93 633.475H535.221C542.148 633.475 548.674 630.234 552.851 624.719L690.721 442.695C701.73 428.161 691.344 407.325 673.091 407.325Z" fill="url(#paint8_linear_18_267)"/>
<path d="M1425.8 -143.419H1261.78C1222.31 -143.419 1184.89 -125.869 1159.7 -95.5413L1041.63 46.5841C1029.68 60.9643 1039.93 82.7314 1058.64 82.7314H1287.93C1294.86 82.7314 1301.39 79.4899 1305.56 73.9746L1443.43 -108.049C1454.44 -122.583 1444.06 -143.419 1425.8 -143.419Z" fill="url(#paint9_linear_18_267)"/>
<path d="M308.699 181.744H144.673C105.204 181.744 67.7863 199.293 42.5919 229.621L-75.4763 371.747C-87.4223 386.127 -77.1772 407.894 -58.4629 407.894H170.828C177.755 407.894 184.281 404.652 188.458 399.137L326.329 217.114C337.337 202.58 326.952 181.744 308.699 181.744Z" fill="url(#paint10_linear_18_267)"/>
<path d="M1061.41 -369H897.386C857.917 -369 820.5 -351.451 795.305 -321.123L677.237 -178.997C665.291 -164.617 675.536 -142.85 694.251 -142.85H923.542C930.468 -142.85 936.995 -146.092 941.172 -151.607L1079.04 -333.63C1090.05 -348.164 1079.67 -369 1061.41 -369Z" fill="url(#paint11_linear_18_267)"/>
<path d="M308.699 682.668H144.673C105.204 682.668 67.7863 700.218 42.5919 730.546L-75.4763 872.671C-87.4223 887.051 -77.1772 908.818 -58.4629 908.818H170.828C177.755 908.818 184.281 905.577 188.458 900.062L326.329 718.039C337.337 703.505 326.952 682.668 308.699 682.668Z" fill="url(#paint12_linear_18_267)"/>
<path d="M1061.41 131.924H897.386C857.917 131.924 820.5 149.474 795.305 179.802L677.237 321.927C665.291 336.307 675.536 358.074 694.251 358.074H923.542C930.468 358.074 936.995 354.833 941.172 349.318L1079.04 167.295C1090.05 152.761 1079.67 131.924 1061.41 131.924Z" fill="url(#paint13_linear_18_267)"/>
<path d="M-55.6941 457.087H-219.72C-259.189 457.087 -296.606 474.636 -321.801 504.964L-439.869 647.09C-451.815 661.47 -441.57 683.237 -422.855 683.237H-193.564C-186.638 683.237 -180.112 679.996 -175.934 674.48L-38.064 492.457C-27.0555 477.923 -37.4411 457.087 -55.6941 457.087Z" fill="url(#paint14_linear_18_267)"/>
<path d="M697.019 -93.6569H532.994C493.525 -93.6569 456.107 -76.1075 430.913 -45.7797L312.845 96.3458C300.898 110.726 311.144 132.493 329.858 132.493H559.149C566.076 132.493 572.602 129.252 576.779 123.736L714.65 -58.2869C725.658 -72.8209 715.272 -93.6569 697.019 -93.6569Z" fill="url(#paint15_linear_18_267)"/>
<path d="M684.144 644.507H468.195C461.617 644.507 455.381 647.432 451.182 652.486L299.969 834.51C288.023 848.89 298.268 870.657 316.982 870.657H491.286C532.846 870.657 572.002 851.208 597.067 818.116L701.774 679.877C712.782 665.343 702.397 644.507 684.144 644.507Z" stroke="black" stroke-width="42" mask="url(#path-1-outside-1_18_267)"/>
<path d="M1436.86 93.763H1220.91C1214.33 93.763 1208.09 96.6879 1203.9 101.743L1052.68 283.766C1040.74 298.146 1050.98 319.913 1069.7 319.913H1244C1285.56 319.913 1324.72 300.464 1349.78 267.372L1454.49 129.133C1465.5 114.599 1455.11 93.763 1436.86 93.763Z" stroke="black" stroke-width="42" mask="url(#path-1-outside-1_18_267)"/>
<path d="M319.751 418.926H103.802C97.2242 418.926 90.9879 421.85 86.7888 426.905L-64.4237 608.928C-76.3697 623.308 -66.1246 645.075 -47.4102 645.075H126.893C168.453 645.075 207.609 625.627 232.674 592.535L337.381 454.296C348.39 439.762 338.004 418.926 319.751 418.926Z" stroke="black" stroke-width="42" mask="url(#path-1-outside-1_18_267)"/>
<path d="M1072.46 -131.818H856.516C849.938 -131.818 843.701 -128.894 839.502 -123.839L688.29 58.1843C676.344 72.5644 686.589 94.3315 705.303 94.3315H879.607C921.167 94.3315 960.323 74.8828 985.388 41.7908L1090.09 -96.4484C1101.1 -110.982 1090.72 -131.818 1072.46 -131.818Z" stroke="black" stroke-width="42" mask="url(#path-1-outside-1_18_267)"/>
<path d="M319.751 919.85H103.802C97.2242 919.85 90.9879 922.775 86.7888 927.83L-64.4237 1109.85C-76.3697 1124.23 -66.1246 1146 -47.4102 1146H126.893C168.453 1146 207.609 1126.55 232.674 1093.46L337.381 955.22C348.39 940.686 338.004 919.85 319.751 919.85Z" stroke="black" stroke-width="42" mask="url(#path-1-outside-1_18_267)"/>
<path d="M1072.46 369.106H856.516C849.938 369.106 843.701 372.031 839.502 377.086L688.29 559.109C676.344 573.489 686.589 595.256 705.303 595.256H879.607C921.167 595.256 960.323 575.807 985.388 542.715L1090.09 404.476C1101.1 389.942 1090.72 369.106 1072.46 369.106Z" stroke="black" stroke-width="42" mask="url(#path-1-outside-1_18_267)"/>
<path d="M-44.6415 694.269H-260.59C-267.168 694.269 -273.405 697.193 -277.604 702.248L-428.816 884.271C-440.762 898.651 -430.517 920.419 -411.803 920.419H-237.499C-195.939 920.419 -156.783 900.97 -131.718 867.878L-27.0114 729.639C-16.0028 715.105 -26.3885 694.269 -44.6415 694.269Z" stroke="black" stroke-width="42" mask="url(#path-1-outside-1_18_267)"/>
<path d="M708.072 143.525H492.123C485.545 143.525 479.309 146.45 475.11 151.504L323.897 333.527C311.951 347.907 322.196 369.675 340.911 369.675H515.214C556.774 369.675 595.93 350.226 620.995 317.134L725.702 178.895C736.711 164.361 726.325 143.525 708.072 143.525Z" stroke="black" stroke-width="42" mask="url(#path-1-outside-1_18_267)"/>
<path d="M673.091 407.325H509.065C469.597 407.325 432.179 424.875 406.985 455.203L288.916 597.328C276.97 611.708 287.215 633.475 305.93 633.475H535.221C542.148 633.475 548.674 630.234 552.851 624.719L690.721 442.695C701.73 428.161 691.344 407.325 673.091 407.325Z" stroke="black" stroke-width="42" mask="url(#path-1-outside-1_18_267)"/>
<path d="M1425.8 -143.419H1261.78C1222.31 -143.419 1184.89 -125.869 1159.7 -95.5413L1041.63 46.5841C1029.68 60.9643 1039.93 82.7314 1058.64 82.7314H1287.93C1294.86 82.7314 1301.39 79.4899 1305.56 73.9746L1443.43 -108.049C1454.44 -122.583 1444.06 -143.419 1425.8 -143.419Z" stroke="black" stroke-width="42" mask="url(#path-1-outside-1_18_267)"/>
<path d="M308.699 181.744H144.673C105.204 181.744 67.7863 199.293 42.5919 229.621L-75.4763 371.747C-87.4223 386.127 -77.1772 407.894 -58.4629 407.894H170.828C177.755 407.894 184.281 404.652 188.458 399.137L326.329 217.114C337.337 202.58 326.952 181.744 308.699 181.744Z" stroke="black" stroke-width="42" mask="url(#path-1-outside-1_18_267)"/>
<path d="M1061.41 -369H897.386C857.917 -369 820.5 -351.451 795.305 -321.123L677.237 -178.997C665.291 -164.617 675.536 -142.85 694.251 -142.85H923.542C930.468 -142.85 936.995 -146.092 941.172 -151.607L1079.04 -333.63C1090.05 -348.164 1079.67 -369 1061.41 -369Z" stroke="black" stroke-width="42" mask="url(#path-1-outside-1_18_267)"/>
<path d="M308.699 682.668H144.673C105.204 682.668 67.7863 700.218 42.5919 730.546L-75.4763 872.671C-87.4223 887.051 -77.1772 908.818 -58.4629 908.818H170.828C177.755 908.818 184.281 905.577 188.458 900.062L326.329 718.039C337.337 703.505 326.952 682.668 308.699 682.668Z" stroke="black" stroke-width="42" mask="url(#path-1-outside-1_18_267)"/>
<path d="M1061.41 131.924H897.386C857.917 131.924 820.5 149.474 795.305 179.802L677.237 321.927C665.291 336.307 675.536 358.074 694.251 358.074H923.542C930.468 358.074 936.995 354.833 941.172 349.318L1079.04 167.295C1090.05 152.761 1079.67 131.924 1061.41 131.924Z" stroke="black" stroke-width="42" mask="url(#path-1-outside-1_18_267)"/>
<path d="M-55.6941 457.087H-219.72C-259.189 457.087 -296.606 474.636 -321.801 504.964L-439.869 647.09C-451.815 661.47 -441.57 683.237 -422.855 683.237H-193.564C-186.638 683.237 -180.112 679.996 -175.934 674.48L-38.064 492.457C-27.0555 477.923 -37.4411 457.087 -55.6941 457.087Z" stroke="black" stroke-width="42" mask="url(#path-1-outside-1_18_267)"/>
<path d="M697.019 -93.6569H532.994C493.525 -93.6569 456.107 -76.1075 430.913 -45.7797L312.845 96.3458C300.898 110.726 311.144 132.493 329.858 132.493H559.149C566.076 132.493 572.602 129.252 576.779 123.736L714.65 -58.2869C725.658 -72.8209 715.272 -93.6569 697.019 -93.6569Z" stroke="black" stroke-width="42" mask="url(#path-1-outside-1_18_267)"/>
</g>
<g filter="url(#filter1_f_18_267)">
<path d="M1244.23 697.148H1091.57C1086.92 697.148 1082.51 699.218 1079.54 702.794L972.643 831.592C964.198 841.768 971.441 857.17 984.67 857.17H1107.89C1137.27 857.17 1164.95 843.408 1182.67 819.992L1256.69 722.176C1264.47 711.892 1257.13 697.148 1244.23 697.148Z" fill="url(#paint16_linear_18_267)"/>
<path d="M1776.35 307.447H1623.69C1619.04 307.447 1614.63 309.516 1611.66 313.093L1504.76 441.891C1496.32 452.066 1503.56 467.468 1516.79 467.468H1640.01C1669.39 467.468 1697.07 453.707 1714.79 430.291L1788.81 332.474C1796.59 322.19 1789.25 307.447 1776.35 307.447Z" fill="url(#paint17_linear_18_267)"/>
<path d="M986.628 537.529H833.966C829.316 537.529 824.907 539.599 821.939 543.175L715.042 671.973C706.597 682.148 713.839 697.55 727.069 697.55H850.29C879.67 697.55 907.351 683.789 925.07 660.373L999.091 562.556C1006.87 552.272 999.531 537.529 986.628 537.529Z" fill="url(#paint18_linear_18_267)"/>
<path d="M1518.75 147.827H1366.08C1361.43 147.827 1357.03 149.897 1354.06 153.474L1247.16 282.272C1238.71 292.447 1245.96 307.849 1259.19 307.849H1382.41C1411.79 307.849 1439.47 294.087 1457.19 270.672L1531.21 172.855C1538.99 162.571 1531.65 147.827 1518.75 147.827Z" fill="url(#paint19_linear_18_267)"/>
<path d="M986.628 891.978H833.966C829.316 891.978 824.907 894.048 821.939 897.625L715.042 1026.42C706.597 1036.6 713.839 1052 727.069 1052H850.29C879.67 1052 907.351 1038.24 925.07 1014.82L999.091 917.006C1006.87 906.722 999.531 891.978 986.628 891.978Z" fill="url(#paint20_linear_18_267)"/>
<path d="M1518.75 502.277H1366.08C1361.43 502.277 1357.03 504.347 1354.06 507.923L1247.16 636.721C1238.71 646.896 1245.96 662.299 1259.19 662.299H1382.41C1411.79 662.299 1439.47 648.537 1457.19 625.121L1531.21 527.305C1538.99 517.02 1531.65 502.277 1518.75 502.277Z" fill="url(#paint21_linear_18_267)"/>
<path d="M1261.14 342.658H1108.48C1103.83 342.658 1099.42 344.727 1096.46 348.304L989.559 477.102C981.114 487.277 988.356 502.679 1001.59 502.679H1124.81C1154.19 502.679 1181.87 488.918 1199.59 465.502L1273.61 367.685C1281.39 357.401 1274.05 342.658 1261.14 342.658Z" fill="url(#paint22_linear_18_267)"/>
<path d="M1236.42 529.321H1120.46C1092.56 529.321 1066.11 541.738 1048.3 563.198L964.83 663.765C956.384 673.94 963.627 689.342 976.857 689.342H1138.95C1143.85 689.342 1148.46 687.049 1151.41 683.146L1248.88 554.348C1256.66 544.064 1249.32 529.321 1236.42 529.321Z" fill="url(#paint23_linear_18_267)"/>
<path d="M1768.53 139.619H1652.58C1624.68 139.619 1598.22 152.037 1580.41 173.497L1496.95 274.064C1488.5 284.239 1495.74 299.641 1508.97 299.641H1671.07C1675.96 299.641 1680.58 297.347 1683.53 293.445L1781 164.647C1788.78 154.363 1781.44 139.619 1768.53 139.619Z" fill="url(#paint24_linear_18_267)"/>
<path d="M978.814 369.701H862.859C834.957 369.701 808.505 382.119 790.695 403.579L707.228 504.146C698.783 514.321 706.026 529.723 719.256 529.723H881.349C886.246 529.723 890.859 527.429 893.813 523.527L991.278 394.729C999.06 384.445 991.718 369.701 978.814 369.701Z" fill="url(#paint25_linear_18_267)"/>
<path d="M1510.93 -20H1394.98C1367.08 -20 1340.62 -7.58221 1322.81 13.8775L1239.35 114.444C1230.9 124.619 1238.14 140.022 1251.37 140.022H1413.47C1418.36 140.022 1422.98 137.728 1425.93 133.825L1523.4 5.02751C1531.18 -5.25662 1523.84 -20 1510.93 -20Z" fill="url(#paint26_linear_18_267)"/>
<path d="M978.814 724.151H862.859C834.957 724.151 808.505 736.569 790.695 758.028L707.228 858.595C698.783 868.77 706.026 884.172 719.256 884.172H881.349C886.246 884.172 890.859 881.879 893.813 877.976L991.278 749.178C999.06 738.894 991.718 724.151 978.814 724.151Z" fill="url(#paint27_linear_18_267)"/>
<path d="M1510.93 334.45H1394.98C1367.08 334.45 1340.62 346.867 1322.81 368.327L1239.35 468.894C1230.9 479.069 1238.14 494.471 1251.37 494.471H1413.47C1418.36 494.471 1422.98 492.178 1425.93 488.275L1523.4 359.477C1531.18 349.193 1523.84 334.45 1510.93 334.45Z" fill="url(#paint28_linear_18_267)"/>
<path d="M1253.33 174.83H1137.38C1109.47 174.83 1083.02 187.248 1065.21 208.708L981.745 309.274C973.3 319.45 980.543 334.852 993.773 334.852H1155.87C1160.76 334.852 1165.38 332.558 1168.33 328.656L1265.79 199.858C1273.58 189.574 1266.23 174.83 1253.33 174.83Z" fill="url(#paint29_linear_18_267)"/>
<path d="M729.027 732.359C741.93 732.359 749.272 747.102 741.49 757.387L667.469 855.203M605.258 564.532H721.213C734.117 564.532 741.459 579.275 733.676 589.559L636.211 718.357C633.258 722.26 628.645 724.553 623.748 724.553H461.655C448.425 724.553 441.182 709.151 449.627 698.976M1091.57 697.148H1244.23C1257.13 697.148 1264.47 711.892 1256.69 722.176L1182.67 819.992C1164.95 843.408 1137.27 857.17 1107.89 857.17H984.67C971.441 857.17 964.198 841.768 972.643 831.592L1079.54 702.794C1082.51 699.218 1086.92 697.148 1091.57 697.148ZM1623.69 307.447H1776.35C1789.25 307.447 1796.59 322.19 1788.81 332.474L1714.79 430.291C1697.07 453.707 1669.39 467.468 1640.01 467.468H1516.79C1503.56 467.468 1496.32 452.066 1504.76 441.891L1611.66 313.093C1614.63 309.516 1619.04 307.447 1623.69 307.447ZM833.966 537.529H986.628C999.531 537.529 1006.87 552.272 999.091 562.556L925.07 660.373C907.351 683.789 879.67 697.55 850.29 697.55H727.069C713.839 697.55 706.597 682.148 715.042 671.973L821.939 543.175C824.907 539.598 829.316 537.529 833.966 537.529ZM1366.08 147.827H1518.75C1531.65 147.827 1538.99 162.571 1531.21 172.855L1457.19 270.672C1439.47 294.087 1411.79 307.849 1382.41 307.849H1259.19C1245.96 307.849 1238.71 292.447 1247.16 282.272L1354.06 153.474C1357.03 149.897 1361.43 147.827 1366.08 147.827ZM833.966 891.978H986.628C999.531 891.978 1006.87 906.722 999.091 917.006L925.07 1014.82C907.351 1038.24 879.67 1052 850.29 1052H727.069C713.839 1052 706.597 1036.6 715.042 1026.42L821.939 897.625C824.907 894.048 829.316 891.978 833.966 891.978ZM1366.08 502.277H1518.75C1531.65 502.277 1538.99 517.02 1531.21 527.305L1457.19 625.121C1439.47 648.537 1411.79 662.299 1382.41 662.299H1259.19C1245.96 662.299 1238.71 646.896 1247.16 636.721L1354.06 507.923C1357.03 504.347 1361.43 502.277 1366.08 502.277ZM1108.48 342.658H1261.14C1274.05 342.658 1281.39 357.401 1273.61 367.685L1199.59 465.502C1181.87 488.918 1154.19 502.679 1124.81 502.679H1001.59C988.356 502.679 981.114 487.277 989.559 477.102L1096.46 348.304C1099.42 344.727 1103.83 342.658 1108.48 342.658ZM1120.46 529.321H1236.42C1249.32 529.321 1256.66 544.064 1248.88 554.348L1151.41 683.146C1148.46 687.049 1143.85 689.342 1138.95 689.342H976.857C963.627 689.342 956.384 673.94 964.83 663.765L1048.3 563.198C1066.11 541.738 1092.56 529.321 1120.46 529.321ZM1652.58 139.619H1768.53C1781.44 139.619 1788.78 154.363 1781 164.647L1683.53 293.445C1680.58 297.347 1675.96 299.641 1671.07 299.641H1508.97C1495.74 299.641 1488.5 284.239 1496.95 274.064L1580.41 173.497C1598.22 152.037 1624.68 139.619 1652.58 139.619ZM862.859 369.701H978.814C991.718 369.701 999.06 384.445 991.278 394.729L893.813 523.527C890.859 527.429 886.246 529.723 881.349 529.723H719.256C706.026 529.723 698.783 514.321 707.228 504.146L790.695 403.579C808.505 382.119 834.957 369.701 862.859 369.701ZM1394.98 -20H1510.93C1523.84 -20 1531.18 -5.25662 1523.4 5.02751L1425.93 133.825C1422.98 137.728 1418.36 140.022 1413.47 140.022H1251.37C1238.14 140.022 1230.9 124.619 1239.35 114.444L1322.81 13.8775C1340.62 -7.58221 1367.08 -20 1394.98 -20ZM862.859 724.151H978.814C991.718 724.151 999.06 738.894 991.278 749.178L893.813 877.976C890.859 881.879 886.246 884.172 881.349 884.172H719.256C706.026 884.172 698.783 868.77 707.228 858.595L790.695 758.028C808.505 736.569 834.957 724.151 862.859 724.151ZM1394.98 334.45H1510.93C1523.84 334.45 1531.18 349.193 1523.4 359.477L1425.93 488.275C1422.98 492.178 1418.36 494.471 1413.47 494.471H1251.37C1238.14 494.471 1230.9 479.069 1239.35 468.894L1322.81 368.327C1340.62 346.867 1367.08 334.45 1394.98 334.45ZM1137.38 174.83H1253.33C1266.23 174.83 1273.58 189.574 1265.79 199.858L1168.33 328.656C1165.38 332.558 1160.76 334.852 1155.87 334.852H993.773C980.543 334.852 973.3 319.45 981.745 309.274L1065.21 208.708C1083.02 187.248 1109.47 174.83 1137.38 174.83Z" stroke="black"/>
</g>
<g filter="url(#filter2_f_18_267)">
<path d="M1333.67 960.759H1266.41C1264.37 960.759 1262.42 961.671 1261.12 963.245L1214.02 1019.95C1210.3 1024.43 1213.49 1031.22 1219.32 1031.22H1273.61C1286.55 1031.22 1298.74 1025.16 1306.55 1014.85L1339.16 971.779C1342.59 967.251 1339.36 960.759 1333.67 960.759Z" fill="url(#paint30_linear_18_267)"/>
<path d="M1568.1 789.174H1500.85C1498.8 789.174 1496.86 790.086 1495.55 791.66L1448.45 848.37C1444.73 852.85 1447.92 859.632 1453.75 859.632H1508.04C1520.98 859.632 1533.18 853.572 1540.98 843.262L1573.59 800.194C1577.02 795.666 1573.79 789.174 1568.1 789.174Z" fill="url(#paint31_linear_18_267)"/>
<path d="M1220.18 890.479H1152.92C1150.88 890.479 1148.93 891.39 1147.63 892.965L1100.53 949.675C1096.81 954.155 1100 960.936 1105.83 960.936H1160.12C1173.06 960.936 1185.25 954.877 1193.06 944.567L1225.67 901.499C1229.1 896.971 1225.87 890.479 1220.18 890.479Z" fill="url(#paint32_linear_18_267)"/>
<path d="M1454.61 718.894H1387.36C1385.31 718.894 1383.37 719.805 1382.06 721.38L1334.96 778.09C1331.24 782.57 1334.43 789.351 1340.26 789.351H1394.55C1407.49 789.351 1419.69 783.292 1427.49 772.982L1460.1 729.914C1463.53 725.386 1460.3 718.894 1454.61 718.894Z" fill="url(#paint33_linear_18_267)"/>
<path d="M1220.18 1046.54H1152.92C1150.88 1046.54 1148.93 1047.45 1147.63 1049.03L1100.53 1105.74C1096.81 1110.22 1100 1117 1105.83 1117H1160.12C1173.06 1117 1185.25 1110.94 1193.06 1100.63L1225.67 1057.56C1229.1 1053.03 1225.87 1046.54 1220.18 1046.54Z" fill="url(#paint34_linear_18_267)"/>
<path d="M1454.61 874.958H1387.36C1385.31 874.958 1383.37 875.869 1382.06 877.444L1334.96 934.153C1331.24 938.634 1334.43 945.415 1340.26 945.415H1394.55C1407.49 945.415 1419.69 939.356 1427.49 929.046L1460.1 885.977C1463.53 881.449 1460.3 874.958 1454.61 874.958Z" fill="url(#paint35_linear_18_267)"/>
<path d="M1106.69 976.263H1039.43C1037.39 976.263 1035.44 977.174 1034.14 978.749L987.04 1035.46C983.32 1039.94 986.511 1046.72 992.339 1046.72H1046.63C1059.57 1046.72 1071.76 1040.66 1079.57 1030.35L1112.18 987.282C1115.61 982.754 1112.38 976.263 1106.69 976.263Z" fill="url(#paint36_linear_18_267)"/>
<path d="M1341.12 804.678H1273.87C1271.82 804.678 1269.88 805.589 1268.57 807.164L1221.47 863.873C1217.75 868.353 1220.94 875.135 1226.77 875.135H1281.06C1294 875.135 1306.2 869.076 1314 858.766L1346.61 815.697C1350.04 811.169 1346.81 804.678 1341.12 804.678Z" fill="url(#paint37_linear_18_267)"/>
<path d="M1330.23 886.865H1279.14C1266.85 886.865 1255.2 892.333 1247.35 901.781L1210.58 946.061C1206.86 950.541 1210.05 957.322 1215.88 957.322H1287.29C1289.45 957.322 1291.48 956.312 1292.78 954.594L1335.72 897.885C1339.15 893.357 1335.91 886.865 1330.23 886.865Z" fill="url(#paint38_linear_18_267)"/>
<path d="M1564.66 715.28H1513.58C1501.28 715.28 1489.63 720.748 1481.78 730.196L1445.01 774.476C1441.29 778.956 1444.48 785.737 1450.31 785.737H1521.72C1523.88 785.737 1525.91 784.728 1527.21 783.009L1570.15 726.3C1573.58 721.772 1570.35 715.28 1564.66 715.28Z" fill="url(#paint39_linear_18_267)"/>
<path d="M1216.74 816.585H1165.65C1153.36 816.585 1141.71 822.052 1133.86 831.501L1097.09 875.78C1093.37 880.261 1096.56 887.042 1102.39 887.042H1173.8C1175.96 887.042 1177.99 886.032 1179.29 884.314L1222.23 827.604C1225.66 823.076 1222.42 816.585 1216.74 816.585Z" fill="url(#paint40_linear_18_267)"/>
<path d="M1451.17 645H1400.09C1387.79 645 1376.14 650.468 1368.29 659.916L1331.52 704.196C1327.8 708.676 1330.99 715.457 1336.82 715.457H1408.23C1410.39 715.457 1412.42 714.447 1413.72 712.729L1456.66 656.02C1460.09 651.491 1456.86 645 1451.17 645Z" fill="url(#paint41_linear_18_267)"/>
<path d="M1216.74 972.649H1165.65C1153.36 972.649 1141.71 978.116 1133.86 987.565L1097.09 1031.84C1093.37 1036.32 1096.56 1043.11 1102.39 1043.11H1173.8C1175.96 1043.11 1177.99 1042.1 1179.29 1040.38L1222.23 983.668C1225.66 979.14 1222.42 972.649 1216.74 972.649Z" fill="url(#paint42_linear_18_267)"/>
<path d="M1451.17 801.064H1400.09C1387.79 801.064 1376.14 806.531 1368.29 815.98L1331.52 860.259C1327.8 864.739 1330.99 871.521 1336.82 871.521H1408.23C1410.39 871.521 1412.42 870.511 1413.72 868.793L1456.66 812.083C1460.09 807.555 1456.86 801.064 1451.17 801.064Z" fill="url(#paint43_linear_18_267)"/>
<path d="M1103.25 902.368H1052.16C1039.87 902.368 1028.22 907.836 1020.37 917.285L983.598 961.564C979.877 966.044 983.068 972.826 988.897 972.826H1060.31C1062.47 972.826 1064.5 971.816 1065.8 970.097L1108.74 913.388C1112.17 908.86 1108.93 902.368 1103.25 902.368Z" fill="url(#paint44_linear_18_267)"/>
<path d="M1337.68 730.783H1286.6C1274.3 730.783 1262.65 736.251 1254.8 745.7L1218.03 789.979C1214.31 794.459 1217.5 801.241 1223.33 801.241H1294.74C1296.9 801.241 1298.93 800.231 1300.23 798.513L1343.17 741.803C1346.6 737.275 1343.37 730.783 1337.68 730.783Z" fill="url(#paint45_linear_18_267)"/>
<path d="M1333.67 960.759H1266.41C1264.37 960.759 1262.42 961.671 1261.12 963.245L1214.02 1019.95C1210.3 1024.43 1213.49 1031.22 1219.32 1031.22H1273.61C1286.55 1031.22 1298.74 1025.16 1306.55 1014.85L1339.16 971.779C1342.59 967.251 1339.36 960.759 1333.67 960.759Z" stroke="black"/>
<path d="M1568.1 789.174H1500.85C1498.8 789.174 1496.86 790.086 1495.55 791.66L1448.45 848.37C1444.73 852.85 1447.92 859.632 1453.75 859.632H1508.04C1520.98 859.632 1533.18 853.572 1540.98 843.262L1573.59 800.194C1577.02 795.666 1573.79 789.174 1568.1 789.174Z" stroke="black"/>
<path d="M1220.18 890.479H1152.92C1150.88 890.479 1148.93 891.39 1147.63 892.965L1100.53 949.675C1096.81 954.155 1100 960.936 1105.83 960.936H1160.12C1173.06 960.936 1185.25 954.877 1193.06 944.567L1225.67 901.499C1229.1 896.971 1225.87 890.479 1220.18 890.479Z" stroke="black"/>
<path d="M1454.61 718.894H1387.36C1385.31 718.894 1383.37 719.805 1382.06 721.38L1334.96 778.09C1331.24 782.57 1334.43 789.351 1340.26 789.351H1394.55C1407.49 789.351 1419.69 783.292 1427.49 772.982L1460.1 729.914C1463.53 725.386 1460.3 718.894 1454.61 718.894Z" stroke="black"/>
<path d="M1220.18 1046.54H1152.92C1150.88 1046.54 1148.93 1047.45 1147.63 1049.03L1100.53 1105.74C1096.81 1110.22 1100 1117 1105.83 1117H1160.12C1173.06 1117 1185.25 1110.94 1193.06 1100.63L1225.67 1057.56C1229.1 1053.03 1225.87 1046.54 1220.18 1046.54Z" stroke="black"/>
<path d="M1454.61 874.958H1387.36C1385.31 874.958 1383.37 875.869 1382.06 877.444L1334.96 934.153C1331.24 938.634 1334.43 945.415 1340.26 945.415H1394.55C1407.49 945.415 1419.69 939.356 1427.49 929.046L1460.1 885.977C1463.53 881.449 1460.3 874.958 1454.61 874.958Z" stroke="black"/>
<path d="M1106.69 976.263H1039.43C1037.39 976.263 1035.44 977.174 1034.14 978.749L987.04 1035.46C983.32 1039.94 986.511 1046.72 992.339 1046.72H1046.63C1059.57 1046.72 1071.76 1040.66 1079.57 1030.35L1112.18 987.282C1115.61 982.754 1112.38 976.263 1106.69 976.263Z" stroke="black"/>
<path d="M1341.12 804.678H1273.87C1271.82 804.678 1269.88 805.589 1268.57 807.164L1221.47 863.873C1217.75 868.353 1220.94 875.135 1226.77 875.135H1281.06C1294 875.135 1306.2 869.076 1314 858.766L1346.61 815.697C1350.04 811.169 1346.81 804.678 1341.12 804.678Z" stroke="black"/>
<path d="M1330.23 886.865H1279.14C1266.85 886.865 1255.2 892.333 1247.35 901.781L1210.58 946.061C1206.86 950.541 1210.05 957.322 1215.88 957.322H1287.29C1289.45 957.322 1291.48 956.312 1292.78 954.594L1335.72 897.885C1339.15 893.357 1335.91 886.865 1330.23 886.865Z" stroke="black"/>
<path d="M1564.66 715.28H1513.58C1501.28 715.28 1489.63 720.748 1481.78 730.196L1445.01 774.476C1441.29 778.956 1444.48 785.737 1450.31 785.737H1521.72C1523.88 785.737 1525.91 784.728 1527.21 783.009L1570.15 726.3C1573.58 721.772 1570.35 715.28 1564.66 715.28Z" stroke="black"/>
<path d="M1216.74 816.585H1165.65C1153.36 816.585 1141.71 822.052 1133.86 831.501L1097.09 875.78C1093.37 880.261 1096.56 887.042 1102.39 887.042H1173.8C1175.96 887.042 1177.99 886.032 1179.29 884.314L1222.23 827.604C1225.66 823.076 1222.42 816.585 1216.74 816.585Z" stroke="black"/>
<path d="M1451.17 645H1400.09C1387.79 645 1376.14 650.468 1368.29 659.916L1331.52 704.196C1327.8 708.676 1330.99 715.457 1336.82 715.457H1408.23C1410.39 715.457 1412.42 714.447 1413.72 712.729L1456.66 656.02C1460.09 651.491 1456.86 645 1451.17 645Z" stroke="black"/>
<path d="M1216.74 972.649H1165.65C1153.36 972.649 1141.71 978.116 1133.86 987.565L1097.09 1031.84C1093.37 1036.32 1096.56 1043.11 1102.39 1043.11H1173.8C1175.96 1043.11 1177.99 1042.1 1179.29 1040.38L1222.23 983.668C1225.66 979.14 1222.42 972.649 1216.74 972.649Z" stroke="black"/>
<path d="M1451.17 801.064H1400.09C1387.79 801.064 1376.14 806.531 1368.29 815.98L1331.52 860.259C1327.8 864.739 1330.99 871.521 1336.82 871.521H1408.23C1410.39 871.521 1412.42 870.511 1413.72 868.793L1456.66 812.083C1460.09 807.555 1456.86 801.064 1451.17 801.064Z" stroke="black"/>
<path d="M1103.25 902.368H1052.16C1039.87 902.368 1028.22 907.836 1020.37 917.285L983.598 961.564C979.877 966.044 983.068 972.826 988.897 972.826H1060.31C1062.47 972.826 1064.5 971.816 1065.8 970.097L1108.74 913.388C1112.17 908.86 1108.93 902.368 1103.25 902.368Z" stroke="black"/>
<path d="M1337.68 730.783H1286.6C1274.3 730.783 1262.65 736.251 1254.8 745.7L1218.03 789.979C1214.31 794.459 1217.5 801.241 1223.33 801.241H1294.74C1296.9 801.241 1298.93 800.231 1300.23 798.513L1343.17 741.803C1346.6 737.275 1343.37 730.783 1337.68 730.783Z" stroke="black"/>
</g>
<defs>
<filter id="filter0_f_18_267" x="-506.847" y="-430.8" width="2027.69" height="1638.6" filterUnits="userSpaceOnUse" color-interpolation-filters="sRGB">
<feFlood flood-opacity="0" result="BackgroundImageFix"/>
<feBlend mode="normal" in="SourceGraphic" in2="BackgroundImageFix" result="shape"/>
<feGaussianBlur stdDeviation="20.4" result="effect1_foregroundBlur_18_267"/>
</filter>
<filter id="filter1_f_18_267" x="404.699" y="-61.3" width="1428.6" height="1154.6" filterUnits="userSpaceOnUse" color-interpolation-filters="sRGB">
<feFlood flood-opacity="0" result="BackgroundImageFix"/>
<feBlend mode="normal" in="SourceGraphic" in2="BackgroundImageFix" result="shape"/>
<feGaussianBlur stdDeviation="20.4" result="effect1_foregroundBlur_18_267"/>
</filter>
<filter id="filter2_f_18_267" x="940.699" y="603.7" width="675.602" height="554.6" filterUnits="userSpaceOnUse" color-interpolation-filters="sRGB">
<feFlood flood-opacity="0" result="BackgroundImageFix"/>
<feBlend mode="normal" in="SourceGraphic" in2="BackgroundImageFix" result="shape"/>
<feGaussianBlur stdDeviation="20.4" result="effect1_foregroundBlur_18_267"/>
</filter>
<linearGradient id="paint0_linear_18_267" x1="1783.12" y1="-18.8989" x2="226.673" y2="694.468" gradientUnits="userSpaceOnUse">
<stop stop-color="#FFC702" stop-opacity="0"/>
<stop offset="1"/>
</linearGradient>
<linearGradient id="paint1_linear_18_267" x1="1783.12" y1="-18.8989" x2="226.673" y2="694.468" gradientUnits="userSpaceOnUse">
<stop stop-color="#FFC702" stop-opacity="0"/>
<stop offset="1"/>
</linearGradient>
<linearGradient id="paint2_linear_18_267" x1="1783.12" y1="-18.8989" x2="226.673" y2="694.468" gradientUnits="userSpaceOnUse">
<stop stop-color="#FFC702" stop-opacity="0"/>
<stop offset="1"/>
</linearGradient>
<linearGradient id="paint3_linear_18_267" x1="1783.12" y1="-18.8989" x2="226.673" y2="694.468" gradientUnits="userSpaceOnUse">
<stop stop-color="#FFC702" stop-opacity="0"/>
<stop offset="1"/>
</linearGradient>
<linearGradient id="paint4_linear_18_267" x1="1783.12" y1="-18.8989" x2="226.673" y2="694.468" gradientUnits="userSpaceOnUse">
<stop stop-color="#FFC702" stop-opacity="0"/>
<stop offset="1"/>
</linearGradient>
<linearGradient id="paint5_linear_18_267" x1="1783.12" y1="-18.8989" x2="226.673" y2="694.468" gradientUnits="userSpaceOnUse">
<stop stop-color="#FFC702" stop-opacity="0"/>
<stop offset="1"/>
</linearGradient>
<linearGradient id="paint6_linear_18_267" x1="1783.12" y1="-18.8989" x2="226.673" y2="694.468" gradientUnits="userSpaceOnUse">
<stop stop-color="#FFC702" stop-opacity="0"/>
<stop offset="1"/>
</linearGradient>
<linearGradient id="paint7_linear_18_267" x1="1783.12" y1="-18.8989" x2="226.673" y2="694.468" gradientUnits="userSpaceOnUse">
<stop stop-color="#FFC702" stop-opacity="0"/>
<stop offset="1"/>
</linearGradient>
<linearGradient id="paint8_linear_18_267" x1="1783.12" y1="-18.8989" x2="226.673" y2="694.468" gradientUnits="userSpaceOnUse">
<stop stop-color="#FFC702" stop-opacity="0"/>
<stop offset="1"/>
</linearGradient>
<linearGradient id="paint9_linear_18_267" x1="1783.12" y1="-18.8989" x2="226.673" y2="694.468" gradientUnits="userSpaceOnUse">
<stop stop-color="#FFC702" stop-opacity="0"/>
<stop offset="1"/>
</linearGradient>
<linearGradient id="paint10_linear_18_267" x1="1783.12" y1="-18.8989" x2="226.673" y2="694.468" gradientUnits="userSpaceOnUse">
<stop stop-color="#FFC702" stop-opacity="0"/>
<stop offset="1"/>
</linearGradient>
<linearGradient id="paint11_linear_18_267" x1="1783.12" y1="-18.8989" x2="226.673" y2="694.468" gradientUnits="userSpaceOnUse">
<stop stop-color="#FFC702" stop-opacity="0"/>
<stop offset="1"/>
</linearGradient>
<linearGradient id="paint12_linear_18_267" x1="1783.12" y1="-18.8989" x2="226.673" y2="694.468" gradientUnits="userSpaceOnUse">
<stop stop-color="#FFC702" stop-opacity="0"/>
<stop offset="1"/>
</linearGradient>
<linearGradient id="paint13_linear_18_267" x1="1783.12" y1="-18.8989" x2="226.673" y2="694.468" gradientUnits="userSpaceOnUse">
<stop stop-color="#FFC702" stop-opacity="0"/>
<stop offset="1"/>
</linearGradient>
<linearGradient id="paint14_linear_18_267" x1="1783.12" y1="-18.8989" x2="226.673" y2="694.468" gradientUnits="userSpaceOnUse">
<stop stop-color="#FFC702" stop-opacity="0"/>
<stop offset="1"/>
</linearGradient>
<linearGradient id="paint15_linear_18_267" x1="1783.12" y1="-18.8989" x2="226.673" y2="694.468" gradientUnits="userSpaceOnUse">
<stop stop-color="#FFC702" stop-opacity="0"/>
<stop offset="1"/>
</linearGradient>
<linearGradient id="paint16_linear_18_267" x1="2021.13" y1="227.728" x2="511.481" y2="665.427" gradientUnits="userSpaceOnUse">
<stop stop-color="#FFC702"/>
<stop offset="1"/>
</linearGradient>
<linearGradient id="paint17_linear_18_267" x1="2021.13" y1="227.728" x2="511.481" y2="665.427" gradientUnits="userSpaceOnUse">
<stop stop-color="#FFC702"/>
<stop offset="1"/>
</linearGradient>
<linearGradient id="paint18_linear_18_267" x1="2021.13" y1="227.728" x2="511.481" y2="665.427" gradientUnits="userSpaceOnUse">
<stop stop-color="#FFC702"/>
<stop offset="1"/>
</linearGradient>
<linearGradient id="paint19_linear_18_267" x1="2021.13" y1="227.728" x2="511.481" y2="665.427" gradientUnits="userSpaceOnUse">
<stop stop-color="#FFC702"/>
<stop offset="1"/>
</linearGradient>
<linearGradient id="paint20_linear_18_267" x1="2021.13" y1="227.728" x2="511.481" y2="665.427" gradientUnits="userSpaceOnUse">
<stop stop-color="#FFC702"/>
<stop offset="1"/>
</linearGradient>
<linearGradient id="paint21_linear_18_267" x1="2021.13" y1="227.728" x2="511.481" y2="665.427" gradientUnits="userSpaceOnUse">
<stop stop-color="#FFC702"/>
<stop offset="1"/>
</linearGradient>
<linearGradient id="paint22_linear_18_267" x1="2021.13" y1="227.728" x2="511.481" y2="665.427" gradientUnits="userSpaceOnUse">
<stop stop-color="#FFC702"/>
<stop offset="1"/>
</linearGradient>
<linearGradient id="paint23_linear_18_267" x1="2021.13" y1="227.728" x2="511.481" y2="665.427" gradientUnits="userSpaceOnUse">
<stop stop-color="#FFC702"/>
<stop offset="1"/>
</linearGradient>
<linearGradient id="paint24_linear_18_267" x1="2021.13" y1="227.728" x2="511.481" y2="665.427" gradientUnits="userSpaceOnUse">
<stop stop-color="#FFC702"/>
<stop offset="1"/>
</linearGradient>
<linearGradient id="paint25_linear_18_267" x1="2021.13" y1="227.728" x2="511.481" y2="665.427" gradientUnits="userSpaceOnUse">
<stop stop-color="#FFC702"/>
<stop offset="1"/>
</linearGradient>
<linearGradient id="paint26_linear_18_267" x1="2021.13" y1="227.728" x2="511.481" y2="665.427" gradientUnits="userSpaceOnUse">
<stop stop-color="#FFC702"/>
<stop offset="1"/>
</linearGradient>
<linearGradient id="paint27_linear_18_267" x1="2021.13" y1="227.728" x2="511.481" y2="665.427" gradientUnits="userSpaceOnUse">
<stop stop-color="#FFC702"/>
<stop offset="1"/>
</linearGradient>
<linearGradient id="paint28_linear_18_267" x1="2021.13" y1="227.728" x2="511.481" y2="665.427" gradientUnits="userSpaceOnUse">
<stop stop-color="#FFC702"/>
<stop offset="1"/>
</linearGradient>
<linearGradient id="paint29_linear_18_267" x1="2021.13" y1="227.728" x2="511.481" y2="665.427" gradientUnits="userSpaceOnUse">
<stop stop-color="#FFC702"/>
<stop offset="1"/>
</linearGradient>
<linearGradient id="paint30_linear_18_267" x1="1675.95" y1="754.074" x2="1010.91" y2="947.007" gradientUnits="userSpaceOnUse">
<stop stop-color="#FFC702"/>
<stop offset="1"/>
</linearGradient>
<linearGradient id="paint31_linear_18_267" x1="1675.95" y1="754.074" x2="1010.91" y2="947.007" gradientUnits="userSpaceOnUse">
<stop stop-color="#FFC702"/>
<stop offset="1"/>
</linearGradient>
<linearGradient id="paint32_linear_18_267" x1="1675.95" y1="754.074" x2="1010.91" y2="947.007" gradientUnits="userSpaceOnUse">
<stop stop-color="#FFC702"/>
<stop offset="1"/>
</linearGradient>
<linearGradient id="paint33_linear_18_267" x1="1675.95" y1="754.074" x2="1010.91" y2="947.007" gradientUnits="userSpaceOnUse">
<stop stop-color="#FFC702"/>
<stop offset="1"/>
</linearGradient>
<linearGradient id="paint34_linear_18_267" x1="1675.95" y1="754.074" x2="1010.91" y2="947.007" gradientUnits="userSpaceOnUse">
<stop stop-color="#FFC702"/>
<stop offset="1"/>
</linearGradient>
<linearGradient id="paint35_linear_18_267" x1="1675.95" y1="754.074" x2="1010.91" y2="947.007" gradientUnits="userSpaceOnUse">
<stop stop-color="#FFC702"/>
<stop offset="1"/>
</linearGradient>
<linearGradient id="paint36_linear_18_267" x1="1675.95" y1="754.074" x2="1010.91" y2="947.007" gradientUnits="userSpaceOnUse">
<stop stop-color="#FFC702"/>
<stop offset="1"/>
</linearGradient>
<linearGradient id="paint37_linear_18_267" x1="1675.95" y1="754.074" x2="1010.91" y2="947.007" gradientUnits="userSpaceOnUse">
<stop stop-color="#FFC702"/>
<stop offset="1"/>
</linearGradient>
<linearGradient id="paint38_linear_18_267" x1="1675.95" y1="754.074" x2="1010.91" y2="947.007" gradientUnits="userSpaceOnUse">
<stop stop-color="#FFC702"/>
<stop offset="1"/>
</linearGradient>
<linearGradient id="paint39_linear_18_267" x1="1675.95" y1="754.074" x2="1010.91" y2="947.007" gradientUnits="userSpaceOnUse">
<stop stop-color="#FFC702"/>
<stop offset="1"/>
</linearGradient>
<linearGradient id="paint40_linear_18_267" x1="1675.95" y1="754.074" x2="1010.91" y2="947.007" gradientUnits="userSpaceOnUse">
<stop stop-color="#FFC702"/>
<stop offset="1"/>
</linearGradient>
<linearGradient id="paint41_linear_18_267" x1="1675.95" y1="754.074" x2="1010.91" y2="947.007" gradientUnits="userSpaceOnUse">
<stop stop-color="#FFC702"/>
<stop offset="1"/>
</linearGradient>
<linearGradient id="paint42_linear_18_267" x1="1675.95" y1="754.074" x2="1010.91" y2="947.007" gradientUnits="userSpaceOnUse">
<stop stop-color="#FFC702"/>
<stop offset="1"/>
</linearGradient>
<linearGradient id="paint43_linear_18_267" x1="1675.95" y1="754.074" x2="1010.91" y2="947.007" gradientUnits="userSpaceOnUse">
<stop stop-color="#FFC702"/>
<stop offset="1"/>
</linearGradient>
<linearGradient id="paint44_linear_18_267" x1="1675.95" y1="754.074" x2="1010.91" y2="947.007" gradientUnits="userSpaceOnUse">
<stop stop-color="#FFC702"/>
<stop offset="1"/>
</linearGradient>
<linearGradient id="paint45_linear_18_267" x1="1675.95" y1="754.074" x2="1010.91" y2="947.007" gradientUnits="userSpaceOnUse">
<stop stop-color="#FFC702"/>
<stop offset="1"/>
</linearGradient>
</defs>
</svg>
