<svg width="91" height="90" viewBox="0 0 91 90" fill="none" xmlns="http://www.w3.org/2000/svg">
<path d="M81.8581 46.0637H40.2897C39.0234 46.0637 37.823 46.6277 37.0147 47.6024L7.90756 82.7022C5.60804 85.4751 7.58015 89.6725 11.1825 89.6725H44.7345C52.7344 89.6725 60.2717 85.9222 65.0965 79.541L85.2517 52.8841C87.3708 50.0815 85.3716 46.0637 81.8581 46.0637Z" fill="#FFC702"/>
<path d="M79.7308 0.327484H48.1572C40.5598 0.327484 33.3571 3.71157 28.5074 9.55974L5.78028 36.966C3.48077 39.739 5.45287 43.9364 9.05523 43.9364H53.1919C54.5252 43.9364 55.7814 43.3113 56.5856 42.2478L83.1244 7.14795C85.2435 4.34533 83.2443 0.327484 79.7308 0.327484Z" fill="#FFC702"/>
</svg>
