<svg width="203" height="32" viewBox="0 0 203 32" fill="none" xmlns="http://www.w3.org/2000/svg">
<path d="M28.0486 16.3644H13.8052C13.3714 16.3644 12.96 16.5577 12.6831 16.8917L2.70952 28.9186C1.92159 29.8688 2.59733 31.307 3.83168 31.307H15.3283C18.0694 31.307 20.6521 30.0219 22.3053 27.8354L29.2114 18.7015C29.9375 17.7412 29.2525 16.3644 28.0486 16.3644Z" fill="#FFC702"/>
<path d="M27.3197 0.692993H16.501C13.8978 0.692993 11.4298 1.85255 9.76805 3.85642L1.98061 13.2472C1.19268 14.1973 1.86842 15.6355 3.10277 15.6355H18.2262C18.683 15.6355 19.1135 15.4214 19.389 15.0569L28.4825 3.03002C29.2086 2.06971 28.5236 0.692993 27.3197 0.692993Z" fill="#FFC702"/>
<path d="M55.9128 7.67253C56.2549 7.67253 56.426 7.84358 56.426 8.18568V17.8422C56.426 18.9618 56.3094 19.9181 56.0761 20.7112C55.8429 21.4887 55.4619 22.1262 54.9332 22.6238C54.42 23.1059 53.7436 23.4558 52.9039 23.6735C52.0798 23.8912 51.0768 24 49.895 24H40.7983C40.4406 24 40.2618 23.829 40.2618 23.4869V21.201C40.2618 20.8589 40.4406 20.6879 40.7983 20.6879H49.7784C50.3848 20.6879 50.8824 20.6412 51.2712 20.5479C51.6755 20.4391 51.9942 20.268 52.2275 20.0348C52.4607 19.786 52.624 19.4594 52.7173 19.0551C52.8106 18.6353 52.8573 18.1143 52.8573 17.4923V8.18568C52.8573 7.84358 53.0361 7.67253 53.3937 7.67253H55.9128ZM62.1698 11.1946C62.5118 11.1946 62.6829 11.3734 62.6829 11.7311V18.472C62.6829 18.9696 62.714 19.3817 62.7762 19.7082C62.8384 20.0348 62.955 20.2991 63.1261 20.5013C63.2971 20.6879 63.5381 20.8278 63.8491 20.9211C64.1601 20.9989 64.5722 21.0377 65.0854 21.0377H71.0799C71.593 21.0377 72.0129 20.9989 72.3394 20.9211C72.666 20.8278 72.9226 20.6879 73.1092 20.5013C73.3113 20.2991 73.4513 20.0348 73.529 19.7082C73.6068 19.3817 73.6456 18.9696 73.6456 18.472V11.7311C73.6456 11.3734 73.8167 11.1946 74.1588 11.1946H76.4446C76.7867 11.1946 76.9578 11.3734 76.9578 11.7311V19.2884C76.9578 20.1281 76.8645 20.8511 76.6779 21.4576C76.4913 22.0485 76.1803 22.5383 75.7449 22.9271C75.325 23.3003 74.7575 23.5724 74.0422 23.7434C73.3269 23.9145 72.4483 24 71.4064 24H64.8988C63.8414 24 62.955 23.9145 62.2397 23.7434C61.54 23.5724 60.9724 23.3003 60.537 22.9271C60.1172 22.5383 59.8139 22.0485 59.6273 21.4576C59.4407 20.8511 59.3474 20.1281 59.3474 19.2884V11.7311C59.3474 11.3734 59.5263 11.1946 59.8839 11.1946H62.1698ZM92.0251 11.1946C93.067 11.1946 93.9456 11.2879 94.6609 11.4745C95.3762 11.6455 95.9437 11.9254 96.3636 12.3142C96.799 12.6874 97.11 13.1772 97.2966 13.7837C97.4832 14.3746 97.5765 15.0899 97.5765 15.9296V23.4869C97.5765 23.829 97.4054 24 97.0633 24H94.7775C94.4354 24 94.2643 23.829 94.2643 23.4869V16.7226C94.2643 16.2406 94.2332 15.8363 94.171 15.5097C94.1088 15.1676 93.9844 14.9033 93.7978 14.7167C93.6268 14.5145 93.3858 14.3746 93.0748 14.2968C92.7638 14.2035 92.3595 14.1569 91.8619 14.1569H85.6574C85.1598 14.1569 84.7478 14.2035 84.4212 14.2968C84.0947 14.3746 83.8303 14.5145 83.6282 14.7167C83.4416 14.9033 83.3094 15.1676 83.2316 15.5097C83.1539 15.8363 83.115 16.2406 83.115 16.7226V23.4869C83.115 23.829 82.944 24 82.6019 24H80.316C79.9584 24 79.7795 23.829 79.7795 23.4869V15.9296C79.7795 15.0899 79.8728 14.3746 80.0594 13.7837C80.246 13.1772 80.5493 12.6874 80.9691 12.3142C81.4045 11.9254 81.9721 11.6455 82.6718 11.4745C83.3871 11.2879 84.2735 11.1946 85.3309 11.1946H92.0251ZM103.263 6.50628C103.605 6.50628 103.776 6.67733 103.776 7.01943V16.2561H108.068C108.394 16.2561 108.666 16.2483 108.884 16.2328C109.117 16.2017 109.32 16.155 109.491 16.0928C109.662 16.0151 109.809 15.914 109.934 15.7896C110.074 15.6652 110.221 15.4942 110.377 15.2765L112.989 11.5911C113.083 11.4512 113.176 11.3501 113.269 11.2879C113.378 11.2257 113.518 11.1946 113.689 11.1946H116.325C116.496 11.1946 116.605 11.2646 116.651 11.4045C116.698 11.5289 116.667 11.6689 116.558 11.8244L113.549 15.9529C113.083 16.5904 112.601 17.088 112.103 17.4457C112.741 17.8033 113.293 18.3009 113.759 18.9385L117.071 23.4169C117.165 23.5413 117.18 23.6735 117.118 23.8134C117.071 23.9378 116.962 24 116.791 24H114.179C113.977 24 113.829 23.9767 113.736 23.93C113.642 23.8834 113.549 23.7979 113.456 23.6735L110.61 19.7549C110.33 19.3817 110.027 19.1251 109.701 18.9851C109.39 18.8452 108.915 18.7752 108.278 18.7752H103.776V23.4869C103.776 23.829 103.605 24 103.263 24H100.977C100.619 24 100.441 23.829 100.441 23.4869V7.01943C100.441 6.67733 100.619 6.50628 100.977 6.50628H103.263ZM143.729 7.67253C144.072 7.67253 144.243 7.84358 144.243 8.18568V10.4715C144.243 10.8292 144.072 11.008 143.729 11.008H133.35C132.743 11.008 132.238 11.0624 131.834 11.1713C131.445 11.2646 131.134 11.4356 130.901 11.6844C130.667 11.9177 130.496 12.2364 130.388 12.6407C130.294 13.045 130.248 13.5582 130.248 14.1802V17.4923C130.248 18.1143 130.294 18.6353 130.388 19.0551C130.496 19.4594 130.667 19.786 130.901 20.0348C131.134 20.268 131.445 20.4391 131.834 20.5479C132.238 20.6412 132.743 20.6879 133.35 20.6879H143.729C144.072 20.6879 144.243 20.8589 144.243 21.201V23.4869C144.243 23.829 144.072 24 143.729 24H133.21C132.028 24 131.025 23.8912 130.201 23.6735C129.377 23.4558 128.7 23.1059 128.172 22.6238C127.659 22.1262 127.278 21.4887 127.029 20.7112C126.796 19.9181 126.679 18.9618 126.679 17.8422V13.8303C126.679 12.7107 126.796 11.7622 127.029 10.9847C127.278 10.2072 127.659 9.5774 128.172 9.09535C128.7 8.59775 129.377 8.2401 130.201 8.0224C131.025 7.78916 132.028 7.67253 133.21 7.67253H143.729ZM149.481 6.50628C149.823 6.50628 149.994 6.67733 149.994 7.01943V23.4869C149.994 23.829 149.823 24 149.481 24H147.195C146.853 24 146.682 23.829 146.682 23.4869V7.01943C146.682 6.67733 146.853 6.50628 147.195 6.50628H149.481ZM164.817 11.1946C165.61 11.1946 166.264 11.2646 166.777 11.4045C167.305 11.5289 167.717 11.7466 168.013 12.0576C168.324 12.3531 168.542 12.7496 168.666 13.2472C168.79 13.7292 168.853 14.3201 168.853 15.0199V17.2358C168.853 17.7334 168.744 18.0832 168.526 18.2854C168.308 18.472 167.974 18.5653 167.523 18.5653H155.744V19.1251C155.744 19.8559 155.915 20.3846 156.257 20.7112C156.615 21.0377 157.299 21.201 158.31 21.201H168.036C168.316 21.201 168.456 21.341 168.456 21.6209V23.5802C168.456 23.8601 168.316 24 168.036 24H157.983C156.926 24 156.039 23.9145 155.324 23.7434C154.624 23.5724 154.057 23.3003 153.621 22.9271C153.202 22.5383 152.898 22.0485 152.712 21.4576C152.525 20.8511 152.432 20.1281 152.432 19.2884V15.9296C152.432 15.0899 152.525 14.3746 152.712 13.7837C152.898 13.1772 153.202 12.6874 153.621 12.3142C154.057 11.9254 154.624 11.6455 155.324 11.4745C156.039 11.2879 156.926 11.1946 157.983 11.1946H164.817ZM155.744 16.4894H165.191C165.455 16.4894 165.587 16.3572 165.587 16.0928V15.1132C165.587 14.6311 165.486 14.289 165.284 14.0869C165.082 13.8847 164.709 13.7837 164.164 13.7837H158.31C157.299 13.7837 156.615 13.9469 156.257 14.2735C155.915 14.5845 155.744 15.1132 155.744 15.8596V16.4894ZM181.706 11.1946C182.748 11.1946 183.627 11.2879 184.342 11.4745C185.057 11.6455 185.625 11.9254 186.045 12.3142C186.48 12.6874 186.791 13.1772 186.978 13.7837C187.164 14.3746 187.257 15.0899 187.257 15.9296V22.134C187.257 22.5072 187.226 22.8182 187.164 23.067C187.118 23.3003 187.024 23.4869 186.884 23.6268C186.76 23.7668 186.589 23.8678 186.371 23.93C186.153 23.9767 185.874 24 185.531 24H174.429C173.745 24 173.169 23.9378 172.703 23.8134C172.252 23.6735 171.886 23.4713 171.606 23.207C171.327 22.9426 171.124 22.6005 171 22.1807C170.891 21.7608 170.837 21.2632 170.837 20.6879V19.5683C170.837 19.0862 170.891 18.6586 171 18.2854C171.124 17.8966 171.327 17.5701 171.606 17.3057C171.886 17.0414 172.252 16.847 172.703 16.7226C173.169 16.5827 173.745 16.5127 174.429 16.5127H183.922V16.0695C183.922 15.6963 183.883 15.3775 183.805 15.1132C183.728 14.8488 183.595 14.6389 183.409 14.4834C183.222 14.3124 182.966 14.188 182.639 14.1102C182.313 14.0325 181.893 13.9936 181.38 13.9936H171.63C171.35 13.9936 171.21 13.8536 171.21 13.5737V11.6144C171.21 11.3345 171.35 11.1946 171.63 11.1946H181.706ZM183.246 21.4343C183.494 21.4343 183.665 21.3798 183.759 21.271C183.868 21.1466 183.922 20.9367 183.922 20.6412V18.5886H175.385C174.903 18.5886 174.561 18.6897 174.359 18.8918C174.172 19.0784 174.079 19.3583 174.079 19.7315V20.2214C174.079 20.6412 174.172 20.9522 174.359 21.1544C174.561 21.341 174.903 21.4343 175.385 21.4343H183.246ZM201.767 11.1946C202.047 11.1946 202.187 11.3345 202.187 11.6144V13.5737C202.187 13.8536 202.047 13.9936 201.767 13.9936H195.563C195.065 13.9936 194.653 14.0402 194.326 14.1335C194 14.2113 193.735 14.3512 193.533 14.5534C193.347 14.74 193.215 15.0043 193.137 15.3464C193.059 15.673 193.02 16.0773 193.02 16.5593V23.4869C193.02 23.829 192.849 24 192.507 24H190.221C189.864 24 189.685 23.829 189.685 23.4869V15.9296C189.685 15.0899 189.778 14.3746 189.965 13.7837C190.151 13.1772 190.454 12.6874 190.874 12.3142C191.31 11.9254 191.877 11.6455 192.577 11.4745C193.292 11.2879 194.179 11.1946 195.236 11.1946H201.767Z" fill="white"/>
</svg>
