<svg width="68" height="68" viewBox="0 0 68 68" fill="none" xmlns="http://www.w3.org/2000/svg">
<rect width="68" height="68" rx="8" fill="#FFC702"/>
<g clip-path="url(#clip0_21_404)">
<path d="M50.4227 19.4078C46.4008 14.8703 40.5484 12 34 12C21.8484 12 12 21.8484 12 34H17.5C17.5 24.882 24.882 17.5 34 17.5C39.0273 17.5 43.4875 19.7773 46.5039 23.3266L41.3305 28.5H56V13.8305L50.4227 19.4078ZM34 50.5C28.9727 50.5 24.5125 48.2227 21.4961 44.6734L26.6695 39.5H12V54.1695L17.5773 48.5922C21.5992 53.1297 27.4602 56 34 56C46.1516 56 56 46.1516 56 34H50.5C50.5 43.118 43.118 50.5 34 50.5Z" fill="black"/>
</g>
<defs>
<clipPath id="clip0_21_404">
<rect width="44" height="44" fill="white" transform="translate(12 12)"/>
</clipPath>
</defs>
</svg>
