<svg width="68" height="68" viewBox="0 0 68 68" fill="none" xmlns="http://www.w3.org/2000/svg">
<rect width="68" height="68" rx="8" fill="#FFC702"/>
<path fill-rule="evenodd" clip-rule="evenodd" d="M41.5845 20.668L44.9395 24.023C49.8693 28.9546 52.3333 31.4186 52.3333 34.4803C52.3333 37.5438 49.8693 40.0078 44.9395 44.9376C40.0078 49.8693 37.5438 52.3333 34.4803 52.3333C31.4187 52.3333 28.9528 49.8693 24.023 44.9395L20.668 41.5845C17.8355 38.7501 16.4183 37.3348 15.8922 35.496C15.3642 33.6571 15.8152 31.7047 16.7172 27.8015L17.236 25.5501C17.9932 22.2648 18.3727 20.6221 19.4965 19.4965C20.6203 18.3708 22.2648 17.9931 25.5502 17.236L27.8015 16.7153C31.7065 15.8151 33.6572 15.3641 35.496 15.8903C37.3348 16.4183 38.752 17.8355 41.5845 20.668ZM32.4343 38.268C31.2005 37.036 31.2097 35.265 31.9485 33.8625C31.7656 33.5983 31.681 33.2784 31.7094 32.9583C31.7378 32.6382 31.8774 32.3382 32.1039 32.1103C32.3305 31.8825 32.6297 31.7411 32.9496 31.7109C33.2695 31.6807 33.5899 31.7634 33.8552 31.9448C34.4785 31.6148 35.1623 31.4388 35.8443 31.4461C36.209 31.4496 36.5574 31.5977 36.8128 31.858C37.0683 32.1182 37.2099 32.4693 37.2065 32.834C37.2031 33.1987 37.055 33.547 36.7947 33.8025C36.5344 34.058 36.1833 34.1996 35.8187 34.1961C35.3941 34.2118 34.993 34.3943 34.7022 34.704C33.9927 35.4135 34.1778 36.1248 34.3777 36.3246C34.5793 36.5245 35.2888 36.7096 35.9983 36.0001C37.4357 34.5628 39.918 34.0861 41.5075 35.6756C42.7413 36.9095 42.7322 38.6805 41.9933 40.083C42.1751 40.3472 42.2587 40.6667 42.2298 40.9861C42.2009 41.3055 42.0613 41.6048 41.835 41.8321C41.6088 42.0595 41.3102 42.2006 40.9909 42.231C40.6716 42.2614 40.3518 42.1793 40.0867 41.9988C39.264 42.4502 38.3096 42.6006 37.388 42.4241C37.0306 42.3507 36.717 42.1383 36.5162 41.8337C36.3155 41.5291 36.2439 41.1572 36.3173 40.7998C36.3907 40.4424 36.6031 40.1289 36.9077 39.9281C37.2124 39.7273 37.5843 39.6557 37.9417 39.7291C38.2662 39.797 38.7905 39.6906 39.2397 39.2415C39.9492 38.5301 39.764 37.8207 39.5642 37.6208C39.3625 37.421 38.653 37.2358 37.9435 37.9453C36.5062 39.3826 34.0238 39.8593 32.4343 38.268ZM30.37 30.8705C30.7104 30.5299 30.9804 30.1257 31.1646 29.6808C31.3488 29.2359 31.4436 28.759 31.4435 28.2775C31.4434 27.796 31.3485 27.3192 31.1641 26.8743C30.9798 26.4295 30.7096 26.0253 30.3691 25.6849C30.0285 25.3445 29.6243 25.0744 29.1793 24.8903C28.7344 24.7061 28.2576 24.6113 27.7761 24.6114C27.2946 24.6115 26.8178 24.7064 26.3729 24.8908C25.9281 25.0751 25.5239 25.3453 25.1835 25.6858C24.496 26.3736 24.1098 27.3063 24.11 28.2788C24.1101 29.2513 24.4966 30.1839 25.1844 30.8714C25.8722 31.5589 26.8049 31.9451 27.7774 31.9449C28.7499 31.9447 29.6825 31.5583 30.37 30.8705Z" fill="black"/>
</svg>
