<svg width="68" height="68" viewBox="0 0 68 68" fill="none" xmlns="http://www.w3.org/2000/svg">
<rect width="68" height="68" rx="8" fill="#FFC702"/>
<g clip-path="url(#clip0_7_40)">
<path fill-rule="evenodd" clip-rule="evenodd" d="M12 17.5C12 14.464 14.464 12 17.5 12H50.5C53.536 12 56 14.4609 56 17.5V27.7363C55.9982 33.9911 53.9921 40.0808 50.276 45.112C46.5598 50.1432 41.3292 53.8512 35.3514 55.692C34.4712 55.9653 33.5288 55.9653 32.6486 55.692C26.6708 53.8512 21.4402 50.1432 17.724 45.112C14.0079 40.0808 12.0018 33.9911 12 27.7363V17.5ZM34 32.4286C35.8755 32.4286 37.6741 31.6835 39.0003 30.3574C40.3264 29.0312 41.0714 27.2326 41.0714 25.3571C41.0714 23.4817 40.3264 21.683 39.0003 20.3569C37.6741 19.0307 35.8755 18.2857 34 18.2857C32.1245 18.2857 30.3259 19.0307 28.9997 20.3569C27.6736 21.683 26.9286 23.4817 26.9286 25.3571C26.9286 27.2326 27.6736 29.0312 28.9997 30.3574C30.3259 31.6835 32.1245 32.4286 34 32.4286ZM47.0491 41.5209C45.4265 39.6531 43.4219 38.1554 41.1707 37.129C38.9195 36.1026 36.4742 35.5715 34 35.5714C31.5258 35.5715 29.0805 36.1026 26.8293 37.129C24.5781 38.1554 22.5735 39.6531 20.9509 41.5209C24.0779 46.1277 28.6801 49.5327 34 51.1757C39.3199 49.5327 43.9221 46.1277 47.0491 41.5209Z" fill="black"/>
</g>
<defs>
<clipPath id="clip0_7_40">
<rect width="44" height="44" fill="white" transform="translate(12 12)"/>
</clipPath>
</defs>
</svg>
